:SAMPLES-PER-SECOND 30
:FULLY-SPECIFIED
:DEGREES
143
root  -29.8368 39.0586 24.9423 -6.63767 -4.00151 -1.76447
RightUpLeg  8.69392 -5.81642 -2.26263
RightLeg  35.1545 0.0657961 -0.203389
RightFoot  -14.5875 0.169636 10.1153
RightToes  -5.8209e-011 0 -3.6325e-017
Spine  -1.24834 2.21361 5.85358
Spine1  13.4578 3.10843 -2.68586
HEad  -0.558161 4.69377 -2.66468
LeftShoulder1  9.02065 -12.1898 -50.1721
LeftArm  -7.56826 33.5281 -28.6807
LeftForeArm  27.7826 -7.73407 -5.84144
LeftHand  -0.244104 0.0205437 5.32207
RightShoulder  7.06589 10.4299 44.2599
RightArm  9.40918 -2.73203 31.5311
RightForeArm  -0.612712 25.7966 5.84336
RightHand  -1.21118 3.05946 -16.7736
LeftUpLeg  -19.2174 12.0378 -2.12955
LeftLeg  15.3046 1.1788 0.26393
LeftFoot  10.4952 -1.6015 7.93795
LeftToes  5.72949e-011 -2.03295e-011 6.54899e-012
144
root  -29.7283 39.2247 25.9193 -6.45146 -4.5717 -0.457854
RightUpLeg  3.54062 -4.18326 -4.04313
RightLeg  44.3533 -0.0596138 -0.382242
RightFoot  -6.22236 -0.651016 13.7549
RightToes  -5.8209e-011 0 -3.6325e-017
Spine  0.113342 2.31841 4.57407
Spine1  11.9919 3.46129 -3.58129
HEad  -1.47054 4.14602 -2.20916
LeftShoulder1  8.88601 -12.1347 -49.6018
LeftArm  -9.09784 32.5371 -28.9434
LeftForeArm  25.7301 -8.67286 -5.38639
LeftHand  -0.244104 0.0205437 5.32207
RightShoulder  7.1235 10.4639 44.5237
RightArm  5.19376 -4.26954 33.2197
RightForeArm  0.212866 16.6173 6.22319
RightHand  -1.30571 3.39537 -17.3901
LeftUpLeg  -18.2912 12.6986 -3.40629
LeftLeg  16.421 1.51869 0.525295
LeftFoot  7.81987 -1.30277 7.41472
LeftToes  5.72949e-011 -2.03295e-011 6.54899e-012
145
root  -29.5981 39.4511 26.7196 -6.34373 -5.50256 0.0706129
RightUpLeg  -2.22087 -3.02925 -4.95149
RightLeg  52.3044 -0.561714 -1.17305
RightFoot  0.476694 -1.51668 14.7213
RightToes  -5.8209e-011 0 -3.6325e-017
Spine  1.9896 2.4135 4.77334
Spine1  10.859 3.8755 -4.95483
HEad  -3.18262 3.44741 -2.68299
LeftShoulder1  8.93488 -12.2623 -49.4709
LeftArm  -9.94969 30.5882 -28.787
LeftForeArm  23.7308 -10.7071 -5.02804
LeftHand  -0.244104 0.0205437 5.32207
RightShoulder  7.17727 10.6471 44.2674
RightArm  -3.69968 -6.047 34.1766
RightForeArm  5.81121 9.2027 7.90138
RightHand  -1.16473 2.61244 -16.998
LeftUpLeg  -16.397 12.7919 -3.36225
LeftLeg  15.7062 2.67525 0.196943
LeftFoot  6.21216 -1.07134 6.6931
LeftToes  5.72949e-011 -2.03295e-011 6.54899e-012
146
root  -29.4766 39.7648 27.458 -6.15063 -6.02493 -0.1079
RightUpLeg  -7.10666 -2.8516 -4.99009
RightLeg  56.9961 -1.22915 -2.47636
RightFoot  1.8768 -1.5766 13.6256
RightToes  -5.8209e-011 0 -3.6325e-017
Spine  3.47756 2.22866 5.23928
Spine1  10.2394 3.79969 -5.43083
HEad  -5.22568 3.63425 -3.77351
LeftShoulder1  9.07286 -12.3985 -49.8053
LeftArm  -9.48851 28.2622 -28.1174
LeftForeArm  21.8722 -14.4243 -4.57247
LeftHand  -0.244104 0.0205437 5.32207
RightShoulder  7.29958 10.8814 44.2888
RightArm  -4.73908 -8.03635 33.9963
RightForeArm  6.94219 6.14125 7.83818
RightHand  -0.981488 1.82574 -15.9005
LeftUpLeg  -14.0924 11.0263 -2.313
LeftLeg  13.8023 4.92648 -0.563277
LeftFoot  5.7226 -1.03529 6.66127
LeftToes  5.72949e-011 -2.03295e-011 6.54899e-012
147
root  -29.3784 40.119 28.1699 -5.69494 -5.7068 -0.822618
RightUpLeg  -10.9228 -3.55263 -4.44845
RightLeg  57.9804 -1.75778 -3.49096
RightFoot  -0.132125 -1.19223 12.0945
RightToes  -5.8209e-011 0 -3.6325e-017
Spine  4.38166 1.67134 5.5495
Spine1  9.69729 3.11713 -4.81926
HEad  -7.20932 4.52537 -4.48908
LeftShoulder1  9.07322 -12.3884 -49.8382
LeftArm  -8.73402 25.9629 -27.5312
LeftForeArm  20.3192 -19.1357 -3.97406
LeftHand  -0.244104 0.0205437 5.32207
RightShoulder  7.34741 10.9007 44.5309
RightArm  -2.81661 -10.2348 32.8662
RightForeArm  8.89924 6.48629 8.10512
RightHand  -0.912424 1.68492 -15.0893
LeftUpLeg  -12.0714 8.72286 -1.07808
LeftLeg  11.6101 6.79663 -1.30273
LeftFoot  5.31866 -0.966156 6.36727
LeftToes  5.72949e-011 -2.03295e-011 6.54899e-012
148
root  -29.3126 40.3878 28.8269 -5.14123 -5.13236 -1.6372
RightUpLeg  -14.0146 -4.11841 -3.78182
RightLeg  55.7868 -2.2095 -3.92469
RightFoot  -1.98719 -0.915536 11.0073
RightToes  -5.8209e-011 0 -3.6325e-017
Spine  5.24729 1.09051 5.61115
Spine1  8.90104 2.29941 -3.94346
HEad  -8.82443 4.76139 -4.45511
LeftShoulder1  8.84615 -12.1957 -49.1864
LeftArm  -9.67577 23.7492 -27.3789
LeftForeArm  19.8289 -23.214 -3.93176
LeftHand  -0.244104 0.0205437 5.32207
RightShoulder  7.20226 10.6667 44.3629
RightArm  0.674843 -12.8827 31.7769
RightForeArm  9.26337 9.17598 8.40378
RightHand  -0.932397 1.80311 -15.1638
LeftUpLeg  -10.6094 7.28316 -0.0659859
LeftLeg  10.0156 7.71197 -1.8665
LeftFoot  4.60905 -0.838654 5.78197
LeftToes  5.72949e-011 -2.03295e-011 6.54899e-012
149
root  -29.2772 40.5667 29.4506 -4.67952 -4.82805 -2.28
RightUpLeg  -16.1558 -4.09063 -3.20106
RightLeg  50.7675 -3.09334 -4.40023
RightFoot  -2.61321 -0.763394 9.74913
RightToes  -5.8209e-011 0 -3.6325e-017
Spine  6.19593 0.695521 5.44881
Spine1  7.94357 1.66141 -3.11722
HEad  -10.2299 5.1973 -4.32037
LeftShoulder1  8.54346 -11.9008 -48.4096
LeftArm  -11.7929 21.5736 -27.2139
LeftForeArm  19.5633 -25.6977 -4.46124
LeftHand  -0.244104 0.0205437 5.32207
RightShoulder  6.95895 10.394 43.6733
RightArm  5.84351 -15.787 31.174
RightForeArm  5.20824 12.8469 8.13124
RightHand  -0.953435 1.74165 -15.6287
LeftUpLeg  -9.43648 6.46778 0.752135
LeftLeg  8.92994 8.31107 -2.40008
LeftFoot  4.05104 -0.808159 5.79446
LeftToes  5.72949e-011 -2.03295e-011 6.54899e-012
